# xmcd
#
# Track frame offsets:
#	183
#	16245
#	26333
#	37758
#	45920
#	57958
#	68695
#	81008
#	91108
#	107820
#	121295
#	133183
#	146433
#	163783
#	174795
#	188858
#	201320
#	210183
#
# Disc length: 2970
#
# Revision: 3
# Processed by: cddbd v1.5.1PL0 Copyright (c) Steve Scherf et al.
# Submitted via: CDex 1.30
# Normalized: r1:TDELIM( - ),TSWAP
#
DISCID=de0b9812
DTITLE=Country - Giants
DYEAR=2001
DGENRE=Country
TTITLE0=Billie Joe Royal - Luckenbach Texas
TTITLE1=Donna fargo and Dolly Parton - Sticks and Stones
TTITLE2=Waylon Jennings - Sally was a good old girl
TTITLE3=George Jones - Jambalaya
TTITLE4=Willie Nelson - I'll Stay Around
TTITLE5=Patsy Cline - Honky Tonk Merry Go Round
TTITLE6=Ferlin Husky - Wings Of A Dove
TTITLE7=Kittie Wells - Relesae Me
TTITLE8=Ann Murray - There Goes My Everything
TTITLE9=Kenny Rogers - Ruby Don't Take Your Love To Town
TTITLE10=Kenny Rogers - Me And Bobby McGee
TTITLE11=Ersel Hickey - Twice Times Down
TTITLE12=The Coasters - Beaver Dreamin'
TTITLE13=Merle Kilgore - Income Tax Time
TTITLE14=Roy Clayborne - Arizona Highways
TTITLE15=Jack Scott - What In The World
TTITLE16=Sandy Posey - Born A Woman
TTITLE17=B.J. Thomas - Mama
EXTD=\nYEAR: 2001  ID3G:   2
EXTT0=
EXTT1=
EXTT2=
EXTT3=
EXTT4=
EXTT5=
EXTT6=
EXTT7=
EXTT8=
EXTT9=
EXTT10=
EXTT11=
EXTT12=
EXTT13=
EXTT14=
EXTT15=
EXTT16=
EXTT17=
PLAYORDER=
